<svg id="Logo" height="512" viewBox="0 0 24 24" width="512" xmlns="http://www.w3.org/2000/svg"><path d="m21.25 11.25h-18.5c-1.105 0-2-.895-2-2v-6.5c0-1.105.895-2 2-2h18.5c1.105 0 2 .895 2 2v6.5c0 1.105-.895 2-2 2z" fill="#cfd8dc"/><path d="m19.471 13.554 2.624 2.624.009.009c1.561 1.561 1.114 3.678-.443 5.236l-1.098 1.098c-1.111 1.094-2.73 1.199-5.249.001s-2.948-.323-3.499-.874c-.201-.201-.219-.656.438-1.312 1.041-1.041 2.812-.688 2.812-.688l-4.779-4.779c-.363-.363-.363-.949 0-1.312s.949-.363 1.312 0l2.624 2.624c-.192-.192-.284-.45-.267-.704.009-.219.096-.437.267-.608.363-.363.949-.363 1.312 0l.437.437c-.192-.192-.284-.45-.267-.704.009-.219.096-.437.267-.608.363-.363.949-.363 1.312 0l.875.875c-.192-.192-.284-.45-.267-.704.009-.219.096-.437.267-.608.364-.365.95-.366 1.313-.003z" fill="#ffcc80"/><path d="m7.25 12h-4.5c-1.517 0-2.75-1.233-2.75-2.75v-6.5c0-1.517 1.233-2.75 2.75-2.75h18.5c1.517 0 2.75 1.233 2.75 2.75v6.5c0 1.216-.784 2.272-1.951 2.627-.397.124-.815-.103-.937-.499-.12-.396.103-.815.499-.936.523-.16.889-.65.889-1.193v-6.5c0-.689-.561-1.25-1.25-1.25h-18.5c-.689.001-1.25.562-1.25 1.251v6.5c0 .689.561 1.25 1.25 1.25h4.5c.414 0 .75.336.75.75s-.336.75-.75.75z"/><path d="m10.75 7.25h-2.5c-.414 0-.75-.336-.75-.75s.336-.75.75-.75h2.5c.414 0 .75.336.75.75s-.336.75-.75.75z"/><path d="m10.75 9c-.414 0-.75-.336-.75-.75v-4.5c0-.414.336-.75.75-.75s.75.336.75.75v4.5c0 .414-.336.75-.75.75z"/><path d="m8.25 9c-.414 0-.75-.336-.75-.75v-4.5c0-.414.336-.75.75-.75s.75.336.75.75v4.5c0 .414-.336.75-.75.75z"/><path d="m14.75 9h-.5c-.965 0-1.75-.785-1.75-1.75v-2.5c0-.965.785-1.75 1.75-1.75h.5c.965 0 1.75.785 1.75 1.75v2.5c0 .965-.785 1.75-1.75 1.75zm-.5-4.5c-.138 0-.25.112-.25.25v2.5c0 .138.112.25.25.25h.5c.138 0 .25-.112.25-.25v-2.5c0-.138-.112-.25-.25-.25z"/><path d="m4.708 9h-1.458c-.414 0-.75-.336-.75-.75s.336-.75.75-.75h1.458c.158 0 .292-.172.292-.375s-.134-.375-.292-.375h-.416c-.988 0-1.792-.841-1.792-1.875s.804-1.875 1.792-1.875h1.458c.414 0 .75.336.75.75s-.336.75-.75.75h-1.458c-.158 0-.292.172-.292.375s.134.375.292.375h.416c.988 0 1.792.841 1.792 1.875s-.804 1.875-1.792 1.875z"/><path d="m18.25 9c-.414 0-.75-.336-.75-.75v-4.5c0-.414.336-.75.75-.75h1.25c1.103 0 2 .897 2 2s-.897 2-2 2h-.5v1.25c0 .414-.336.75-.75.75zm.75-3.5h.5c.275 0 .5-.224.5-.5s-.225-.5-.5-.5h-.5z"/><path d="m18.736 23.996c-1 0-2.151-.313-3.471-.94-1.371-.652-2.02-.626-2.448-.611-.381.012-.857.032-1.313-.423-.449-.449-.603-1.345.444-2.393.384-.384.846-.608 1.324-.727l-3.32-3.32c-.659-.66-.659-1.734.001-2.394s1.733-.659 2.394-.001l1.475 1.475c.04-.05.083-.098.129-.144.32-.32.745-.496 1.196-.497h.001c.093 0 .185.007.274.022.079-.151.182-.291.306-.414.557-.558 1.41-.646 2.061-.26.049-.065.103-.127.161-.186.659-.658 1.733-.66 2.393-.001l2.442 2.443c1.781 1.782 1.6 4.345-.442 6.387l-.894.894c-.738.727-1.637 1.09-2.713 1.09zm-5.665-3.058c.563 0 1.427.091 2.839.763 2.797 1.328 3.896.715 4.482.14l.885-.885c1.091-1.09 1.86-2.857.456-4.261l-2.45-2.451c-.076-.075-.196-.076-.272.001-.076.076-.077.195-.002.271l.667.667c.146.146.22.338.22.53s-.073.384-.22.53c-.293.293-.768.293-1.061 0l-1.554-1.554c-.076-.076-.196-.076-.272.001-.063.063-.064.206-.002.271l.002.001c.001.001.002.002.003.003l1.106 1.108c.293.293.293.768 0 1.061-.294.292-.769.292-1.061 0l-1.109-1.11c-.002-.001-.003-.003-.005-.004l-.439-.439c-.064-.064-.208-.064-.272 0-.064.063-.064.208 0 .271l1.109 1.11c.146.146.22.338.22.53s-.073.384-.22.53c-.294.294-.768.292-1.061 0l-3.773-3.774c-.076-.075-.196-.076-.272.001-.076.076-.077.196-.001.272l4.542 4.542c.229.229.285.579.14.868-.146.288-.458.456-.78.404-.503-.074-1.423-.128-1.905.354-.101.101-.173.187-.224.256.084-.003.18-.007.284-.007z"/></svg>